<?xml version="1.0" encoding="utf-8"?>
<!-- Generator: Adobe Illustrator 24.2.1, SVG Export Plug-In . SVG Version: 6.00 Build 0)  -->
<svg version="1.1" id="Layer_1" xmlns="http://www.w3.org/2000/svg" xmlns:xlink="http://www.w3.org/1999/xlink" x="0px" y="0px"
	 viewBox="0 0 640 512" style="enable-background:new 0 0 640 512;" xml:space="preserve">
<style type="text/css">
	.st0{opacity:0.32;}
	.st1{fill:#D32E13;stroke:#000000;stroke-width:7;stroke-miterlimit:10;}
	.st2{font-family:'MyriadPro-Regular';}
	.st3{font-size:151.6169px;}
	.st4{fill:none;stroke:#000000;stroke-width:7;stroke-miterlimit:10;}
</style>
<g id="Layer_1_1_" focusable="false" class="st0">
</g>
<g id="Layer_2_1_">
	<path class="st1" d="M612.7,256.9L449.6,7.1L83.4,193.6l-3.7,1.9c0,0-7.6,3.6-7.8,3.8C30.8,220.4,6.8,261.5,9,306.7
		c1.6,33.9,17.6,66.4,44.9,91.7c27.3,25.2,62.4,39.9,98.8,41.4c23.8,1,47.1-3.9,67.3-14l3.6-1.8l0,0c1.7-1.4,4.5-0.7,5.6,1.1
		l13.6,20.8c34.9,53.6,108.3,74.6,163,46.6l171-87.3C631.5,377.1,647.6,310.5,612.7,256.9z M203.1,401c-2.9,1.3-6.1,2.6-9.7,4
		c-13.9,6-29.6,8.8-45.5,8.2c-58.2-2.3-107.7-49.3-110.4-104.6c-1.6-33.5,14.6-64.1,42.8-81.5c1.9-1.2,5-3,9.1-4.3l0,0
		c2-0.7,4.4,0.3,5.6,2.1l21.2,33.3l12,18.7l76.3,119.6l0.4,0.5C205.8,398.5,205,400.6,203.1,401L203.1,401z"/>
</g>
<text transform="matrix(0.9582 -0.4661 0.5338 0.8456 229.2916 346.9433)" class="st2 st3">[</text>
<text transform="matrix(0.9499 -0.4828 0.5485 0.8362 326.6573 297.8244)" class="st2 st3">Ø</text>
<text transform="matrix(-0.9499 0.4828 0.5485 0.8362 522.4255 198.3311)" class="st2 st3">[</text>
<path class="st4" d="M376,272.1"/>
<path class="st4" d="M234.7,344.4"/>
</svg>
